# Blender 3.3.0
# www.blender.org
mtllib UVSphere.mtl
o 球
v 0.000000 0.382683 -0.923880
v 0.000000 0.000000 -1.000000
v 0.000000 -0.382683 -0.923880
v 0.000000 -0.923880 -0.382683
v 0.146447 0.923880 -0.353553
v 0.270598 0.707107 -0.653281
v 0.353553 0.382683 -0.853553
v 0.382683 0.000000 -0.923880
v 0.353553 -0.382683 -0.853553
v 0.270598 -0.707107 -0.653281
v 0.146447 -0.923880 -0.353553
v 0.270598 0.923880 -0.270598
v 0.500000 0.707107 -0.500000
v 0.653282 0.382683 -0.653281
v 0.707107 0.000000 -0.707107
v 0.653282 -0.382683 -0.653281
v 0.500000 -0.707107 -0.500000
v 0.270598 -0.923880 -0.270598
v 0.353553 0.923880 -0.146447
v 0.653281 0.707107 -0.270598
v 0.853553 0.382683 -0.353553
v 0.923880 0.000000 -0.382683
v 0.853553 -0.382683 -0.353553
v 0.653281 -0.707107 -0.270598
v 0.353553 -0.923880 -0.146447
v 0.382683 0.923880 0.000000
v 0.707107 0.707107 0.000000
v 0.923880 0.382683 0.000000
v 1.000000 0.000000 0.000000
v 0.923880 -0.382683 -0.000000
v 0.707107 -0.707107 -0.000000
v 0.382683 -0.923880 -0.000000
v 0.353553 0.923880 0.146447
v 0.653281 0.707107 0.270598
v 0.853553 0.382683 0.353554
v 0.923879 -0.000000 0.382684
v 0.853553 -0.382683 0.353554
v 0.653281 -0.707107 0.270598
v 0.353553 -0.923880 0.146447
v 0.270598 0.923880 0.270598
v 0.500000 0.707107 0.500000
v 0.653281 0.382683 0.653282
v 0.707107 -0.000000 0.707107
v 0.653281 -0.382683 0.653282
v 0.500000 -0.707107 0.500000
v 0.270598 -0.923880 0.270598
v 0.146447 0.923880 0.353553
v 0.270598 0.707107 0.653281
v 0.353553 0.382683 0.853553
v 0.382683 -0.000000 0.923880
v 0.353553 -0.382683 0.853553
v 0.270598 -0.707107 0.653281
v 0.146447 -0.923880 0.353553
v 0.000000 0.923880 0.382683
v 0.000000 0.707107 0.707107
v 0.000000 0.382683 0.923879
v 0.000000 -0.000000 1.000000
v 0.000000 -0.382683 0.923879
v 0.000000 -0.707107 0.707107
v 0.000000 -0.923880 0.382683
v 0.000000 -1.000000 -0.000000
v 0.000000 1.000000 0.000000
v -0.146447 0.923880 0.353553
v -0.270598 0.707107 0.653281
v -0.353554 0.382683 0.853553
v -0.382684 -0.000000 0.923879
v -0.353554 -0.382683 0.853553
v -0.270598 -0.707107 0.653281
v -0.146447 -0.923880 0.353553
v -0.270598 0.923880 0.270598
v -0.500000 0.707107 0.500000
v -0.653282 0.382683 0.653281
v -0.707107 -0.000000 0.707106
v -0.653282 -0.382683 0.653281
v -0.500000 -0.707107 0.500000
v -0.270598 -0.923880 0.270598
v -0.353553 0.923880 0.146446
v -0.653281 0.707107 0.270598
v -0.853553 0.382683 0.353553
v -0.923880 -0.000000 0.382683
v -0.853553 -0.382683 0.353553
v -0.653281 -0.707107 0.270598
v -0.353553 -0.923880 0.146446
v -0.382683 0.923880 0.000000
v -0.707107 0.707107 0.000000
v -0.923879 0.382683 0.000000
v -1.000000 0.000000 -0.000001
v -0.923879 -0.382683 -0.000000
v -0.707107 -0.707107 -0.000000
v -0.382683 -0.923880 -0.000000
v -0.353553 0.923880 -0.146447
v -0.653281 0.707107 -0.270598
v -0.853553 0.382683 -0.353554
v -0.923879 0.000000 -0.382684
v -0.853553 -0.382683 -0.353554
v -0.653281 -0.707107 -0.270598
v -0.353553 -0.923880 -0.146447
v -0.270598 0.923880 -0.270598
v -0.500000 0.707107 -0.500000
v -0.653281 0.382683 -0.653282
v -0.707106 0.000000 -0.707107
v -0.653281 -0.382683 -0.653282
v -0.500000 -0.707107 -0.500000
v -0.270598 -0.923880 -0.270598
v -0.146446 0.923880 -0.353554
v -0.270598 0.707107 -0.653281
v -0.353553 0.382683 -0.853553
v -0.382683 0.000000 -0.923880
v -0.353553 -0.382683 -0.853553
v -0.270598 -0.707107 -0.653281
v -0.146446 -0.923880 -0.353554
v 0.000000 0.923880 -0.382683
v 0.000000 0.707107 -0.707107
v 0.000000 -0.707107 -0.707107
vn -0.0000 -1.0000 -0.0000
vn -0.0000 -0.9152 -0.4031
vn 0.1543 -0.9152 -0.3724
vn -0.0000 -0.6952 -0.7189
vn 0.3549 -0.3744 -0.8567
vn 0.2751 -0.6952 -0.6641
vn -0.0000 0.3744 -0.9273
vn 0.3827 -0.0000 -0.9239
vn -0.0000 -0.0000 -1.0000
vn -0.0000 0.9152 -0.4031
vn 0.2751 0.6952 -0.6641
vn -0.0000 0.6952 -0.7189
vn -0.0000 -0.3744 -0.9273
vn 0.3549 0.3744 -0.8567
vn -0.0000 1.0000 -0.0000
vn 0.1543 0.9152 -0.3724
vn 0.2850 -0.9152 -0.2850
vn 0.7071 -0.0000 -0.7071
vn 0.6557 -0.3744 -0.6557
vn 0.5083 0.6952 -0.5083
vn 0.6557 0.3744 -0.6557
vn 0.2850 0.9152 -0.2850
vn 0.5083 -0.6952 -0.5083
vn 0.9239 -0.0000 -0.3827
vn 0.8567 -0.3744 -0.3549
vn 0.6641 0.6952 -0.2751
vn 0.8567 0.3744 -0.3549
vn 0.3724 0.9152 -0.1543
vn 0.3724 -0.9152 -0.1543
vn 0.6641 -0.6952 -0.2751
vn 0.4031 -0.9152 -0.0000
vn 0.7189 -0.6952 -0.0000
vn 0.9273 0.3744 -0.0000
vn 1.0000 -0.0000 -0.0000
vn 0.4031 0.9152 -0.0000
vn 0.7189 0.6952 -0.0000
vn 0.9273 -0.3744 -0.0000
vn 0.9239 -0.0000 0.3827
vn 0.6641 0.6952 0.2751
vn 0.6641 -0.6952 0.2751
vn 0.3724 -0.9152 0.1543
vn 0.8567 -0.3744 0.3549
vn 0.8567 0.3744 0.3549
vn 0.3724 0.9152 0.1543
vn 0.2850 -0.9152 0.2850
vn 0.7071 -0.0000 0.7071
vn 0.6557 -0.3744 0.6557
vn 0.5083 0.6952 0.5083
vn 0.6557 0.3744 0.6557
vn 0.2850 0.9152 0.2850
vn 0.5083 -0.6952 0.5083
vn 0.2751 0.6952 0.6641
vn 0.3549 0.3744 0.8567
vn 0.1543 0.9152 0.3724
vn 0.1543 -0.9152 0.3724
vn 0.2751 -0.6952 0.6641
vn 0.3827 -0.0000 0.9239
vn 0.3549 -0.3744 0.8567
vn -0.0000 -0.9152 0.4031
vn -0.0000 -0.6952 0.7189
vn -0.0000 0.3744 0.9273
vn -0.0000 -0.0000 1.0000
vn -0.0000 0.9152 0.4031
vn -0.0000 0.6952 0.7189
vn -0.0000 -0.3744 0.9273
vn -0.2751 0.6952 0.6641
vn -0.2751 -0.6952 0.6641
vn -0.1543 -0.9152 0.3724
vn -0.3549 -0.3744 0.8567
vn -0.3549 0.3744 0.8567
vn -0.1543 0.9152 0.3724
vn -0.3827 -0.0000 0.9239
vn -0.2850 -0.9152 0.2850
vn -0.7071 -0.0000 0.7071
vn -0.6557 -0.3744 0.6557
vn -0.5083 0.6952 0.5083
vn -0.6557 0.3744 0.6557
vn -0.2850 0.9152 0.2850
vn -0.5083 -0.6952 0.5083
vn -0.3724 0.9152 0.1543
vn -0.3724 -0.9152 0.1543
vn -0.6641 -0.6952 0.2751
vn -0.8567 0.3744 0.3549
vn -0.9239 -0.0000 0.3827
vn -0.6641 0.6952 0.2751
vn -0.8567 -0.3744 0.3549
vn -0.7189 -0.6952 -0.0000
vn -0.9273 0.3744 -0.0000
vn -1.0000 -0.0000 -0.0000
vn -0.4031 0.9152 -0.0000
vn -0.7189 0.6952 -0.0000
vn -0.4031 -0.9152 -0.0000
vn -0.9273 -0.3744 -0.0000
vn -0.6641 -0.6952 -0.2751
vn -0.3724 -0.9152 -0.1543
vn -0.8567 -0.3744 -0.3549
vn -0.8567 0.3744 -0.3549
vn -0.3724 0.9152 -0.1543
vn -0.9239 -0.0000 -0.3827
vn -0.6641 0.6952 -0.2751
vn -0.7071 -0.0000 -0.7071
vn -0.6557 -0.3744 -0.6557
vn -0.5083 0.6952 -0.5083
vn -0.6557 0.3744 -0.6557
vn -0.2850 0.9152 -0.2850
vn -0.2850 -0.9152 -0.2850
vn -0.5083 -0.6952 -0.5083
vn -0.1543 -0.9152 -0.3724
vn -0.2751 -0.6952 -0.6641
vn -0.3549 0.3744 -0.8567
vn -0.3827 -0.0000 -0.9239
vn -0.2751 0.6952 -0.6641
vn -0.3549 -0.3744 -0.8567
vn -0.1543 0.9152 -0.3724
vt 0.750000 0.625000
vt 0.750000 0.500000
vt 0.750000 0.375000
vt 0.750000 0.125000
vt 0.687500 0.875000
vt 0.687500 0.750000
vt 0.687500 0.625000
vt 0.687500 0.500000
vt 0.687500 0.375000
vt 0.687500 0.250000
vt 0.687500 0.125000
vt 0.625000 0.875000
vt 0.625000 0.750000
vt 0.625000 0.625000
vt 0.625000 0.500000
vt 0.625000 0.375000
vt 0.625000 0.250000
vt 0.625000 0.125000
vt 0.562500 0.875000
vt 0.562500 0.750000
vt 0.562500 0.625000
vt 0.562500 0.500000
vt 0.562500 0.375000
vt 0.562500 0.250000
vt 0.562500 0.125000
vt 0.500000 0.875000
vt 0.500000 0.750000
vt 0.500000 0.625000
vt 0.500000 0.500000
vt 0.500000 0.375000
vt 0.500000 0.250000
vt 0.500000 0.125000
vt 0.437500 0.875000
vt 0.437500 0.750000
vt 0.437500 0.625000
vt 0.437500 0.500000
vt 0.437500 0.375000
vt 0.437500 0.250000
vt 0.437500 0.125000
vt 0.375000 0.875000
vt 0.375000 0.750000
vt 0.375000 0.625000
vt 0.375000 0.500000
vt 0.375000 0.375000
vt 0.375000 0.250000
vt 0.375000 0.125000
vt 0.312500 0.875000
vt 0.312500 0.750000
vt 0.312500 0.625000
vt 0.312500 0.500000
vt 0.312500 0.375000
vt 0.312500 0.250000
vt 0.312500 0.125000
vt 0.250000 0.875000
vt 0.250000 0.750000
vt 0.250000 0.625000
vt 0.250000 0.500000
vt 0.250000 0.375000
vt 0.250000 0.250000
vt 0.250000 0.125000
vt 0.718750 0.000000
vt 0.656250 0.000000
vt 0.593750 0.000000
vt 0.531250 0.000000
vt 0.468750 0.000000
vt 0.406250 0.000000
vt 0.343750 0.000000
vt 0.281250 0.000000
vt 0.218750 0.000000
vt 0.156250 0.000000
vt 0.093750 0.000000
vt 0.031250 0.000000
vt 0.968750 0.000000
vt 0.906250 0.000000
vt 0.843750 0.000000
vt 0.781250 0.000000
vt 0.718750 1.000000
vt 0.656250 1.000000
vt 0.593750 1.000000
vt 0.531250 1.000000
vt 0.468750 1.000000
vt 0.406250 1.000000
vt 0.343750 1.000000
vt 0.281250 1.000000
vt 0.218750 1.000000
vt 0.156250 1.000000
vt 0.093750 1.000000
vt 0.031250 1.000000
vt 0.968750 1.000000
vt 0.906250 1.000000
vt 0.843750 1.000000
vt 0.781250 1.000000
vt 0.187500 0.875000
vt 0.187500 0.750000
vt 0.187500 0.625000
vt 0.187500 0.500000
vt 0.187500 0.375000
vt 0.187500 0.250000
vt 0.187500 0.125000
vt 0.125000 0.875000
vt 0.125000 0.750000
vt 0.125000 0.625000
vt 0.125000 0.500000
vt 0.125000 0.375000
vt 0.125000 0.250000
vt 0.125000 0.125000
vt 0.062500 0.875000
vt 0.062500 0.750000
vt 0.062500 0.625000
vt 0.062500 0.500000
vt 0.062500 0.375000
vt 0.062500 0.250000
vt 0.062500 0.125000
vt 0.000000 0.875000
vt 1.000000 0.875000
vt 0.000000 0.750000
vt 1.000000 0.750000
vt 0.000000 0.625000
vt 1.000000 0.625000
vt 0.000000 0.500000
vt 1.000000 0.500000
vt 0.000000 0.375000
vt 1.000000 0.375000
vt 0.000000 0.250000
vt 1.000000 0.250000
vt 0.000000 0.125000
vt 1.000000 0.125000
vt 0.937500 0.875000
vt 0.937500 0.750000
vt 0.937500 0.625000
vt 0.937500 0.500000
vt 0.937500 0.375000
vt 0.937500 0.250000
vt 0.937500 0.125000
vt 0.875000 0.875000
vt 0.875000 0.750000
vt 0.875000 0.625000
vt 0.875000 0.500000
vt 0.875000 0.375000
vt 0.875000 0.250000
vt 0.875000 0.125000
vt 0.812500 0.875000
vt 0.812500 0.750000
vt 0.812500 0.625000
vt 0.812500 0.500000
vt 0.812500 0.375000
vt 0.812500 0.250000
vt 0.812500 0.125000
vt 0.750000 0.875000
vt 0.750000 0.750000
vt 0.750000 0.250000
s 1
usemtl マテリアル
f 61/61/1 4/4/2 11/11/3
f 114/151/4 9/9/5 10/10/6
f 1/1/7 8/8/8 2/2/9
f 112/149/10 6/6/11 113/150/12
f 4/4/2 10/10/6 11/11/3
f 3/3/13 8/8/8 9/9/5
f 113/150/12 7/7/14 1/1/7
f 112/149/10 62/77/15 5/5/16
f 10/10/6 18/18/17 11/11/3
f 9/9/5 15/15/18 16/16/19
f 7/7/14 13/13/20 14/14/21
f 5/5/16 62/78/15 12/12/22
f 61/62/1 11/11/3 18/18/17
f 9/9/5 17/17/23 10/10/6
f 7/7/14 15/15/18 8/8/8
f 6/6/11 12/12/22 13/13/20
f 16/16/19 22/22/24 23/23/25
f 14/14/21 20/20/26 21/21/27
f 12/12/22 62/79/15 19/19/28
f 61/63/1 18/18/17 25/25/29
f 16/16/19 24/24/30 17/17/23
f 14/14/21 22/22/24 15/15/18
f 12/12/22 20/20/26 13/13/20
f 18/18/17 24/24/30 25/25/29
f 61/64/1 25/25/29 32/32/31
f 23/23/25 31/31/32 24/24/30
f 22/22/24 28/28/33 29/29/34
f 20/20/26 26/26/35 27/27/36
f 24/24/30 32/32/31 25/25/29
f 22/22/24 30/30/37 23/23/25
f 21/21/27 27/27/36 28/28/33
f 19/19/28 62/80/15 26/26/35
f 28/28/33 36/36/38 29/29/34
f 26/26/35 34/34/39 27/27/36
f 32/32/31 38/38/40 39/39/41
f 30/30/37 36/36/38 37/37/42
f 27/27/36 35/35/43 28/28/33
f 26/26/35 62/81/15 33/33/44
f 61/65/1 32/32/31 39/39/41
f 31/31/32 37/37/42 38/38/40
f 38/38/40 46/46/45 39/39/41
f 37/37/42 43/43/46 44/44/47
f 35/35/43 41/41/48 42/42/49
f 33/33/44 62/82/15 40/40/50
f 61/66/1 39/39/41 46/46/45
f 37/37/42 45/45/51 38/38/40
f 35/35/43 43/43/46 36/36/38
f 34/34/39 40/40/50 41/41/48
f 42/42/49 48/48/52 49/49/53
f 40/40/50 62/83/15 47/47/54
f 61/67/1 46/46/45 53/53/55
f 44/44/47 52/52/56 45/45/51
f 42/42/49 50/50/57 43/43/46
f 40/40/50 48/48/52 41/41/48
f 46/46/45 52/52/56 53/53/55
f 44/44/47 50/50/57 51/51/58
f 61/68/1 53/53/55 60/60/59
f 51/51/58 59/59/60 52/52/56
f 50/50/57 56/56/61 57/57/62
f 48/48/52 54/54/63 55/55/64
f 52/52/56 60/60/59 53/53/55
f 50/50/57 58/58/65 51/51/58
f 49/49/53 55/55/64 56/56/61
f 47/47/54 62/84/15 54/54/63
f 54/54/63 64/94/66 55/55/64
f 60/60/59 68/98/67 69/99/68
f 57/57/62 67/97/69 58/58/65
f 56/56/61 64/94/66 65/95/70
f 54/54/63 62/85/15 63/93/71
f 61/69/1 60/60/59 69/99/68
f 58/58/65 68/98/67 59/59/60
f 56/56/61 66/96/72 57/57/62
f 68/98/67 76/106/73 69/99/68
f 67/97/69 73/103/74 74/104/75
f 65/95/70 71/101/76 72/102/77
f 63/93/71 62/86/15 70/100/78
f 61/70/1 69/99/68 76/106/73
f 67/97/69 75/105/79 68/98/67
f 65/95/70 73/103/74 66/96/72
f 64/94/66 70/100/78 71/101/76
f 70/100/78 62/87/15 77/107/80
f 61/71/1 76/106/73 83/113/81
f 74/104/75 82/112/82 75/105/79
f 73/103/74 79/109/83 80/110/84
f 70/100/78 78/108/85 71/101/76
f 76/106/73 82/112/82 83/113/81
f 73/103/74 81/111/86 74/104/75
f 72/102/77 78/108/85 79/109/83
f 81/111/86 89/124/87 82/112/82
f 80/110/84 86/118/88 87/120/89
f 78/108/85 84/114/90 85/116/91
f 82/112/82 90/126/92 83/113/81
f 80/110/84 88/122/93 81/111/86
f 79/109/83 85/116/91 86/118/88
f 77/107/80 62/88/15 84/114/90
f 61/72/1 83/113/81 90/126/92
f 90/127/92 96/133/94 97/134/95
f 87/121/89 95/132/96 88/123/93
f 85/117/91 93/130/97 86/119/88
f 84/115/90 62/89/15 91/128/98
f 61/73/1 90/127/92 97/134/95
f 88/123/93 96/133/94 89/125/87
f 87/121/89 93/130/97 94/131/99
f 84/115/90 92/129/100 85/117/91
f 95/132/96 101/138/101 102/139/102
f 93/130/97 99/136/103 100/137/104
f 91/128/98 62/90/15 98/135/105
f 61/74/1 97/134/95 104/141/106
f 95/132/96 103/140/107 96/133/94
f 93/130/97 101/138/101 94/131/99
f 92/129/100 98/135/105 99/136/103
f 96/133/94 104/141/106 97/134/95
f 61/75/1 104/141/106 111/148/108
f 102/139/102 110/147/109 103/140/107
f 101/138/101 107/144/110 108/145/111
f 98/135/105 106/143/112 99/136/103
f 104/141/106 110/147/109 111/148/108
f 101/138/101 109/146/113 102/139/102
f 100/137/104 106/143/112 107/144/110
f 98/135/105 62/91/15 105/142/114
f 108/145/111 1/1/7 2/2/9
f 105/142/114 113/150/12 106/143/112
f 111/148/108 114/151/4 4/4/2
f 108/145/111 3/3/13 109/146/113
f 107/144/110 113/150/12 1/1/7
f 105/142/114 62/92/15 112/149/10
f 61/76/1 111/148/108 4/4/2
f 109/146/113 114/151/4 110/147/109
f 114/151/4 3/3/13 9/9/5
f 1/1/7 7/7/14 8/8/8
f 112/149/10 5/5/16 6/6/11
f 4/4/2 114/151/4 10/10/6
f 3/3/13 2/2/9 8/8/8
f 113/150/12 6/6/11 7/7/14
f 10/10/6 17/17/23 18/18/17
f 9/9/5 8/8/8 15/15/18
f 7/7/14 6/6/11 13/13/20
f 9/9/5 16/16/19 17/17/23
f 7/7/14 14/14/21 15/15/18
f 6/6/11 5/5/16 12/12/22
f 16/16/19 15/15/18 22/22/24
f 14/14/21 13/13/20 20/20/26
f 16/16/19 23/23/25 24/24/30
f 14/14/21 21/21/27 22/22/24
f 12/12/22 19/19/28 20/20/26
f 18/18/17 17/17/23 24/24/30
f 23/23/25 30/30/37 31/31/32
f 22/22/24 21/21/27 28/28/33
f 20/20/26 19/19/28 26/26/35
f 24/24/30 31/31/32 32/32/31
f 22/22/24 29/29/34 30/30/37
f 21/21/27 20/20/26 27/27/36
f 28/28/33 35/35/43 36/36/38
f 26/26/35 33/33/44 34/34/39
f 32/32/31 31/31/32 38/38/40
f 30/30/37 29/29/34 36/36/38
f 27/27/36 34/34/39 35/35/43
f 31/31/32 30/30/37 37/37/42
f 38/38/40 45/45/51 46/46/45
f 37/37/42 36/36/38 43/43/46
f 35/35/43 34/34/39 41/41/48
f 37/37/42 44/44/47 45/45/51
f 35/35/43 42/42/49 43/43/46
f 34/34/39 33/33/44 40/40/50
f 42/42/49 41/41/48 48/48/52
f 44/44/47 51/51/58 52/52/56
f 42/42/49 49/49/53 50/50/57
f 40/40/50 47/47/54 48/48/52
f 46/46/45 45/45/51 52/52/56
f 44/44/47 43/43/46 50/50/57
f 51/51/58 58/58/65 59/59/60
f 50/50/57 49/49/53 56/56/61
f 48/48/52 47/47/54 54/54/63
f 52/52/56 59/59/60 60/60/59
f 50/50/57 57/57/62 58/58/65
f 49/49/53 48/48/52 55/55/64
f 54/54/63 63/93/71 64/94/66
f 60/60/59 59/59/60 68/98/67
f 57/57/62 66/96/72 67/97/69
f 56/56/61 55/55/64 64/94/66
f 58/58/65 67/97/69 68/98/67
f 56/56/61 65/95/70 66/96/72
f 68/98/67 75/105/79 76/106/73
f 67/97/69 66/96/72 73/103/74
f 65/95/70 64/94/66 71/101/76
f 67/97/69 74/104/75 75/105/79
f 65/95/70 72/102/77 73/103/74
f 64/94/66 63/93/71 70/100/78
f 74/104/75 81/111/86 82/112/82
f 73/103/74 72/102/77 79/109/83
f 70/100/78 77/107/80 78/108/85
f 76/106/73 75/105/79 82/112/82
f 73/103/74 80/110/84 81/111/86
f 72/102/77 71/101/76 78/108/85
f 81/111/86 88/122/93 89/124/87
f 80/110/84 79/109/83 86/118/88
f 78/108/85 77/107/80 84/114/90
f 82/112/82 89/124/87 90/126/92
f 80/110/84 87/120/89 88/122/93
f 79/109/83 78/108/85 85/116/91
f 90/127/92 89/125/87 96/133/94
f 87/121/89 94/131/99 95/132/96
f 85/117/91 92/129/100 93/130/97
f 88/123/93 95/132/96 96/133/94
f 87/121/89 86/119/88 93/130/97
f 84/115/90 91/128/98 92/129/100
f 95/132/96 94/131/99 101/138/101
f 93/130/97 92/129/100 99/136/103
f 95/132/96 102/139/102 103/140/107
f 93/130/97 100/137/104 101/138/101
f 92/129/100 91/128/98 98/135/105
f 96/133/94 103/140/107 104/141/106
f 102/139/102 109/146/113 110/147/109
f 101/138/101 100/137/104 107/144/110
f 98/135/105 105/142/114 106/143/112
f 104/141/106 103/140/107 110/147/109
f 101/138/101 108/145/111 109/146/113
f 100/137/104 99/136/103 106/143/112
f 108/145/111 107/144/110 1/1/7
f 105/142/114 112/149/10 113/150/12
f 111/148/108 110/147/109 114/151/4
f 108/145/111 2/2/9 3/3/13
f 107/144/110 106/143/112 113/150/12
f 109/146/113 3/3/13 114/151/4
