# Blender 3.3.0
# www.blender.org
mtllib Carrot.mtl
o Cone
v 0.000000 -0.278669 3.750984
v -0.106642 -0.257456 3.750984
v -0.197049 -0.197048 3.750984
v -0.257457 -0.106642 3.750984
v -0.278669 0.000000 3.750984
v -0.257457 0.106642 3.750984
v -0.197049 0.197049 3.750984
v -0.106642 0.257457 3.750984
v 0.000000 0.278669 3.750984
v 0.106642 0.257457 3.750984
v 0.197049 0.197049 3.750984
v 0.257457 0.106642 3.750984
v 0.278669 0.000000 3.750984
v 0.257457 -0.106642 3.750984
v 0.197049 -0.197048 3.750984
v 0.106642 -0.257456 3.750984
v 0.000000 0.000000 3.889254
v 0.000000 -0.396027 3.446380
v -0.151553 -0.365882 3.446380
v -0.280034 -0.280034 3.446380
v -0.365882 -0.151553 3.446380
v -0.396028 0.000000 3.446380
v -0.365882 0.151554 3.446380
v -0.280034 0.280034 3.446380
v -0.151553 0.365882 3.446380
v 0.000000 0.396028 3.446380
v 0.151553 0.365882 3.446380
v 0.280034 0.280034 3.446380
v 0.365882 0.151554 3.446380
v 0.396028 0.000000 3.446380
v 0.365882 -0.151553 3.446380
v 0.280034 -0.280034 3.446380
v 0.151553 -0.365882 3.446380
v 0.000000 -1.000000 -1.694666
v -0.382683 -0.923880 -1.694666
v -0.707107 -0.707107 -1.694666
v -0.923879 -0.382684 -1.694666
v -1.000000 -0.000000 -1.694666
v -0.923879 0.382683 -1.694666
v -0.707107 0.707107 -1.694666
v -0.382683 0.923879 -1.694666
v 0.000000 1.000000 -1.694666
v 0.382683 0.923879 -1.694666
v 0.707107 0.707107 -1.694666
v 0.923880 0.382683 -1.694666
v 1.000000 -0.000000 -1.694666
v 0.923880 -0.382684 -1.694666
v 0.707107 -0.707107 -1.694666
v 0.382683 -0.923880 -1.694666
v -0.000000 -0.924212 -1.958686
v -0.353681 -0.853861 -1.958686
v -0.653517 -0.653517 -1.958686
v -0.853861 -0.353681 -1.958686
v -0.924212 -0.000000 -1.958686
v -0.853861 0.353680 -1.958686
v -0.653517 0.653516 -1.958686
v -0.353681 0.853860 -1.958686
v -0.000000 0.924212 -1.958686
v 0.353681 0.853860 -1.958686
v 0.653517 0.653516 -1.958686
v 0.853861 0.353680 -1.958686
v 0.924212 -0.000000 -1.958686
v 0.853861 -0.353681 -1.958686
v 0.653517 -0.653517 -1.958686
v 0.353681 -0.853861 -1.958686
v -0.000000 -0.694585 -2.102182
v -0.265806 -0.641713 -2.102182
v -0.491145 -0.491146 -2.102182
v -0.641712 -0.265806 -2.102182
v -0.694584 -0.000000 -2.102182
v -0.641712 0.265806 -2.102182
v -0.491145 0.491145 -2.102182
v -0.265806 0.641712 -2.102182
v -0.000000 0.694584 -2.102182
v 0.265806 0.641712 -2.102182
v 0.491145 0.491145 -2.102182
v 0.641712 0.265806 -2.102182
v 0.694584 -0.000000 -2.102182
v 0.641712 -0.265806 -2.102182
v 0.491145 -0.491146 -2.102182
v 0.265806 -0.641713 -2.102182
v -0.000000 -0.403508 -2.020509
v -0.154416 -0.372793 -2.020509
v -0.285323 -0.285323 -2.020509
v -0.372793 -0.154416 -2.020509
v -0.403508 -0.000000 -2.020509
v -0.372793 0.154416 -2.020509
v -0.285323 0.285323 -2.020509
v -0.154416 0.372792 -2.020509
v -0.000000 0.403508 -2.020509
v 0.154416 0.372792 -2.020509
v 0.285323 0.285323 -2.020509
v 0.372793 0.154416 -2.020509
v 0.403508 -0.000000 -2.020509
v 0.372793 -0.154416 -2.020509
v 0.285323 -0.285323 -2.020509
v 0.154416 -0.372793 -2.020509
v -0.000000 -0.363350 -2.110746
v -0.139048 -0.335692 -2.110746
v -0.256927 -0.256928 -2.110746
v -0.335692 -0.139048 -2.110746
v -0.363350 -0.000000 -2.110746
v -0.335692 0.139048 -2.110746
v -0.256927 0.256927 -2.110746
v -0.139048 0.335692 -2.110746
v -0.000000 0.363350 -2.110746
v 0.139048 0.335692 -2.110746
v 0.256927 0.256927 -2.110746
v 0.335692 0.139048 -2.110746
v 0.363350 -0.000000 -2.110746
v 0.335692 -0.139048 -2.110746
v 0.256927 -0.256928 -2.110746
v 0.139048 -0.335692 -2.110746
vn -0.0881 -0.4427 0.8923
vn -0.2508 -0.3753 0.8923
vn -0.3753 -0.2508 0.8923
vn -0.4427 -0.0881 0.8923
vn -0.4427 0.0881 0.8923
vn -0.3753 0.2508 0.8923
vn -0.2508 0.3753 0.8923
vn -0.0881 0.4427 0.8923
vn 0.0881 0.4427 0.8923
vn 0.2508 0.3753 0.8923
vn 0.3753 0.2508 0.8923
vn 0.4427 0.0881 0.8923
vn 0.4427 -0.0881 0.8923
vn 0.3753 -0.2508 0.8923
vn 0.7778 -0.5197 0.3535
vn 0.2508 -0.3753 0.8923
vn 0.0881 -0.4427 0.8923
vn 0.8260 0.5519 0.1145
vn -0.7778 -0.5197 0.3535
vn -0.5197 0.7778 0.3535
vn 0.7778 0.5197 0.3535
vn 0.5197 -0.7778 0.3535
vn -0.9175 -0.1825 0.3535
vn -0.1825 -0.9175 0.3535
vn -0.1825 0.9175 0.3535
vn 0.9175 0.1825 0.3535
vn 0.1825 -0.9175 0.3535
vn -0.9175 0.1825 0.3535
vn 0.1825 0.9175 0.3535
vn 0.9175 -0.1825 0.3535
vn -0.5197 -0.7778 0.3535
vn -0.7778 0.5197 0.3535
vn 0.5197 0.7778 0.3535
vn -0.5348 -0.8004 -0.2710
vn -0.9743 -0.1938 0.1145
vn 0.9743 0.1938 0.1145
vn -0.9743 0.1938 0.1145
vn 0.9743 -0.1938 0.1145
vn -0.8260 0.5519 0.1145
vn 0.8260 -0.5519 0.1145
vn -0.5519 0.8260 0.1145
vn 0.5519 -0.8260 0.1145
vn -0.1938 0.9743 0.1145
vn -0.1938 -0.9743 0.1145
vn 0.1938 -0.9743 0.1145
vn 0.1938 0.9743 0.1145
vn -0.5519 -0.8260 0.1145
vn 0.5519 0.8260 0.1145
vn -0.8260 -0.5519 0.1145
vn -0.5348 0.8004 -0.2710
vn 0.5348 0.8004 -0.2710
vn -0.8004 -0.5348 -0.2710
vn 0.8004 0.5348 -0.2710
vn -0.9441 -0.1878 -0.2710
vn 0.9441 0.1878 -0.2710
vn -0.9441 0.1878 -0.2710
vn 0.9441 -0.1878 -0.2710
vn -0.8004 0.5348 -0.2710
vn 0.8004 -0.5348 -0.2710
vn 0.5348 -0.8004 -0.2710
vn -0.1878 0.9441 -0.2710
vn 0.1878 -0.9441 -0.2710
vn 0.1878 0.9441 -0.2710
vn 0.4468 0.2985 -0.8434
vn 0.0537 0.2698 -0.9614
vn -0.5270 -0.1048 -0.8434
vn 0.5270 0.1048 -0.8434
vn -0.5270 0.1048 -0.8434
vn 0.5270 -0.1048 -0.8434
vn -0.4468 0.2985 -0.8434
vn 0.4468 -0.2985 -0.8434
vn -0.2985 0.4468 -0.8434
vn 0.2985 -0.4468 -0.8434
vn -0.1048 0.5270 -0.8434
vn -0.1048 -0.5270 -0.8434
vn 0.1048 -0.5270 -0.8434
vn 0.1048 0.5270 -0.8434
vn -0.2985 -0.4468 -0.8434
vn 0.2985 0.4468 -0.8434
vn -0.4468 -0.2985 -0.8434
vn -0.7620 0.5092 -0.4000
vn -0.0537 0.2698 -0.9614
vn -0.0537 -0.2698 -0.9614
vn 0.1528 0.2287 -0.9614
vn -0.1528 -0.2287 -0.9614
vn 0.2287 0.1528 -0.9614
vn -0.2287 -0.1528 -0.9614
vn 0.2698 0.0537 -0.9614
vn -0.2698 -0.0537 -0.9614
vn 0.2698 -0.0537 -0.9614
vn -0.2698 0.0537 -0.9614
vn 0.2287 -0.1528 -0.9614
vn -0.2287 0.1528 -0.9614
vn 0.1528 -0.2287 -0.9614
vn -0.1528 0.2287 -0.9614
vn 0.0537 -0.2698 -0.9614
vn -0.0000 -0.0000 -1.0000
vn 0.7620 -0.5092 -0.4000
vn -0.5092 0.7620 -0.4000
vn 0.5092 -0.7620 -0.4000
vn -0.1788 0.8989 -0.4000
vn -0.1788 -0.8989 -0.4000
vn 0.1788 -0.8989 -0.4000
vn 0.1788 0.8989 -0.4000
vn -0.5092 -0.7620 -0.4000
vn 0.5092 0.7620 -0.4000
vn -0.7620 -0.5092 -0.4000
vn 0.7620 0.5092 -0.4000
vn -0.8989 -0.1788 -0.4000
vn 0.8989 0.1788 -0.4000
vn -0.8989 0.1788 -0.4000
vn 0.8989 -0.1788 -0.4000
vn -0.1878 -0.9441 -0.2710
vt 0.599000 0.000088
vt 0.733581 0.047489
vt 0.595419 0.021640
vt 0.596146 0.039157
vt 0.599733 0.053639
vt 0.605328 0.065656
vt 0.612393 0.075546
vt 0.620569 0.083529
vt 0.629617 0.089747
vt 0.639375 0.094275
vt 0.649735 0.097124
vt 0.660620 0.098237
vt 0.671968 0.097472
vt 0.683725 0.094585
vt 0.695828 0.089170
vt 0.708209 0.080558
vt 0.720804 0.067533
vt 0.657749 0.043911
vt 0.527896 0.010584
vt 0.777412 0.106394
vt 0.538194 0.035314
vt 0.549394 0.056715
vt 0.561347 0.074593
vt 0.573892 0.089364
vt 0.586902 0.101482
vt 0.600318 0.111335
vt 0.614155 0.119222
vt 0.628472 0.125339
vt 0.643379 0.129791
vt 0.659019 0.132588
vt 0.675565 0.133643
vt 0.693204 0.132775
vt 0.712126 0.129725
vt 0.732486 0.124221
vt 0.754353 0.116186
vt 0.777412 0.829349
vt 0.031658 0.575943
vt 0.098441 0.593498
vt 0.156977 0.608865
vt 0.209124 0.623795
vt 0.256856 0.638424
vt 0.301635 0.652680
vt 0.343915 0.667319
vt 0.385360 0.680821
vt 0.425852 0.694163
vt 0.465813 0.707366
vt 0.505597 0.720592
vt 0.545591 0.734128
vt 0.586303 0.748421
vt 0.628466 0.764148
vt 0.673179 0.782323
vt 0.722101 0.804261
vt 0.750846 0.879795
vt 0.019150 0.635873
vt 0.088945 0.642594
vt 0.147205 0.651367
vt 0.198888 0.662028
vt 0.246366 0.673886
vt 0.291116 0.686434
vt 0.333796 0.699459
vt 0.374990 0.712182
vt 0.415452 0.724982
vt 0.455330 0.737852
vt 0.494842 0.750961
vt 0.534236 0.764645
vt 0.573834 0.779454
vt 0.614092 0.796242
vt 0.655690 0.816357
vt 0.699848 0.842158
vt 0.023041 0.704402
vt 0.707534 0.915198
vt 0.086741 0.697488
vt 0.141005 0.699257
vt 0.190233 0.705609
vt 0.236232 0.714641
vt 0.280056 0.725273
vt 0.322311 0.736812
vt 0.363395 0.748677
vt 0.403705 0.760784
vt 0.443366 0.773101
vt 0.482449 0.785777
vt 0.521015 0.799169
vt 0.559149 0.813882
vt 0.596962 0.830846
vt 0.634566 0.851480
vt 0.671900 0.878107
vt 0.051577 0.785352
vt 0.651182 0.948194
vt 0.093380 0.776050
vt 0.136002 0.773765
vt 0.178120 0.776702
vt 0.219580 0.783189
vt 0.260535 0.791971
vt 0.301128 0.802091
vt 0.341403 0.812830
vt 0.381301 0.823763
vt 0.420637 0.834705
vt 0.459144 0.845719
vt 0.496515 0.857132
vt 0.532431 0.869536
vt 0.566548 0.883778
vt 0.598430 0.900929
vt 0.627365 0.922177
vt 0.059457 0.811845
vt 0.633253 0.962722
vt 0.096866 0.803919
vt 0.134461 0.810912
vt 0.135527 0.801902
vt 0.166517 0.831760
vt 0.174668 0.804705
vt 0.188155 0.863288
vt 0.214070 0.811034
vt 0.196081 0.900697
vt 0.253724 0.819718
vt 0.293616 0.829757
vt 0.189088 0.938291
vt 0.168240 0.970348
vt 0.333624 0.840359
vt 0.136712 0.991986
vt 0.373506 0.851004
vt 0.099303 0.999912
vt 0.412899 0.861432
vt 0.061709 0.992919
vt 0.451353 0.871664
vt 0.029652 0.972071
vt 0.488370 0.882016
vt 0.008014 0.940543
vt 0.523447 0.893084
vt 0.000088 0.903134
vt 0.556069 0.905712
vt 0.007081 0.865539
vt 0.585662 0.920914
vt 0.027929 0.833483
vt 0.611557 0.939744
s 0
usemtl Material
f 1/1/1 17/18/1 2/3/1
f 2/3/2 17/18/2 3/4/2
f 3/4/3 17/18/3 4/5/3
f 4/5/4 17/18/4 5/6/4
f 5/6/5 17/18/5 6/7/5
f 6/7/6 17/18/6 7/8/6
f 7/8/7 17/18/7 8/9/7
f 8/9/8 17/18/8 9/10/8
f 9/10/9 17/18/9 10/11/9
f 10/11/10 17/18/10 11/12/10
f 11/12/11 17/18/11 12/13/11
f 12/13/12 17/18/12 13/14/12
f 13/14/13 17/18/13 14/15/13
f 14/15/14 17/18/14 15/16/14
f 14/15/15 32/34/15 31/33/15
f 15/16/16 17/18/16 16/17/16
f 16/17/17 17/18/17 1/2/17
f 28/30/18 45/48/18 44/47/18
f 4/5/19 20/22/19 3/4/19
f 8/9/20 24/26/20 7/8/20
f 12/13/21 28/30/21 11/12/21
f 16/17/22 32/34/22 15/16/22
f 4/5/23 22/24/23 21/23/23
f 1/1/24 19/21/24 18/19/24
f 9/10/25 25/27/25 8/9/25
f 12/13/26 30/32/26 29/31/26
f 16/17/27 18/20/27 33/35/27
f 6/7/28 22/24/28 5/6/28
f 9/10/29 27/29/29 26/28/29
f 13/14/30 31/33/30 30/32/30
f 2/3/31 20/22/31 19/21/31
f 6/7/32 24/26/32 23/25/32
f 10/11/33 28/30/33 27/29/33
f 36/39/34 51/55/34 35/38/34
f 22/24/35 37/40/35 21/23/35
f 30/32/36 45/48/36 29/31/36
f 23/25/37 38/41/37 22/24/37
f 30/32/38 47/50/38 46/49/38
f 24/26/39 39/42/39 23/25/39
f 31/33/40 48/51/40 47/50/40
f 25/27/41 40/43/41 24/26/41
f 33/35/42 48/51/42 32/34/42
f 26/28/43 41/44/43 25/27/43
f 18/19/44 35/38/44 34/37/44
f 33/35/45 34/36/45 49/52/45
f 26/28/46 43/46/46 42/45/46
f 19/21/47 36/39/47 35/38/47
f 27/29/48 44/47/48 43/46/48
f 21/23/49 36/39/49 20/22/49
f 57/61/50 40/43/50 41/44/50
f 60/64/51 43/46/51 44/47/51
f 37/40/52 52/56/52 36/39/52
f 61/65/53 44/47/53 45/48/53
f 54/58/54 37/40/54 38/41/54
f 62/66/55 45/48/55 46/49/55
f 55/59/56 38/41/56 39/42/56
f 47/50/57 62/66/57 46/49/57
f 39/42/58 56/60/58 55/59/58
f 64/68/59 47/50/59 48/51/59
f 49/52/60 64/68/60 48/51/60
f 58/62/61 41/44/61 42/45/61
f 50/53/62 49/52/62 34/36/62
f 59/63/63 42/45/63 43/46/63
f 60/64/64 77/82/64 76/81/64
f 67/72/65 82/87/65 66/70/65
f 54/58/66 69/74/66 53/57/66
f 61/65/67 78/83/67 77/82/67
f 54/58/68 71/76/68 70/75/68
f 63/67/69 78/83/69 62/66/69
f 56/60/70 71/76/70 55/59/70
f 64/68/71 79/84/71 63/67/71
f 56/60/72 73/78/72 72/77/72
f 65/69/73 80/85/73 64/68/73
f 57/61/74 74/79/74 73/78/74
f 51/55/75 66/70/75 50/54/75
f 65/69/76 66/71/76 81/86/76
f 59/63/77 74/79/77 58/62/77
f 51/55/78 68/73/78 67/72/78
f 59/63/79 76/81/79 75/80/79
f 53/57/80 68/73/80 52/56/80
f 88/94/81 103/114/81 87/93/81
f 66/71/82 97/103/82 81/86/82
f 75/80/83 90/96/83 74/79/83
f 68/73/84 83/89/84 67/72/84
f 76/81/85 91/97/85 75/80/85
f 69/74/86 84/90/86 68/73/86
f 77/82/87 92/98/87 76/81/87
f 70/75/88 85/91/88 69/74/88
f 78/83/89 93/99/89 77/82/89
f 71/76/90 86/92/90 70/75/90
f 79/84/91 94/100/91 78/83/91
f 72/77/92 87/93/92 71/76/92
f 79/84/93 96/102/93 95/101/93
f 73/78/94 88/94/94 72/77/94
f 81/86/95 96/102/95 80/85/95
f 73/78/96 90/96/96 89/95/96
f 105/117/97 109/125/97 113/133/97
f 96/102/98 111/130/98 95/101/98
f 88/94/99 105/118/99 104/115/99
f 96/102/100 113/134/100 112/132/100
f 89/95/101 106/120/101 105/118/101
f 83/89/102 98/104/102 82/87/102
f 82/88/103 113/134/103 97/103/103
f 90/96/104 107/122/104 106/120/104
f 83/89/105 100/108/105 99/106/105
f 91/97/106 108/124/106 107/122/106
f 85/91/107 100/108/107 84/90/107
f 93/99/108 108/124/108 92/98/108
f 86/92/109 101/110/109 85/91/109
f 93/99/110 110/128/110 109/126/110
f 86/92/111 103/114/111 102/112/111
f 95/101/112 110/128/112 94/100/112
f 51/55/113 34/37/113 35/38/113
f 14/15/15 15/16/15 32/34/15
f 28/30/18 29/31/18 45/48/18
f 4/5/19 21/23/19 20/22/19
f 8/9/20 25/27/20 24/26/20
f 12/13/21 29/31/21 28/30/21
f 16/17/22 33/35/22 32/34/22
f 4/5/23 5/6/23 22/24/23
f 1/1/24 2/3/24 19/21/24
f 9/10/25 26/28/25 25/27/25
f 12/13/26 13/14/26 30/32/26
f 16/17/27 1/2/27 18/20/27
f 6/7/28 23/25/28 22/24/28
f 9/10/29 10/11/29 27/29/29
f 13/14/30 14/15/30 31/33/30
f 2/3/31 3/4/31 20/22/31
f 6/7/32 7/8/32 24/26/32
f 10/11/33 11/12/33 28/30/33
f 36/39/34 52/56/34 51/55/34
f 22/24/35 38/41/35 37/40/35
f 30/32/36 46/49/36 45/48/36
f 23/25/37 39/42/37 38/41/37
f 30/32/38 31/33/38 47/50/38
f 24/26/39 40/43/39 39/42/39
f 31/33/40 32/34/40 48/51/40
f 25/27/41 41/44/41 40/43/41
f 33/35/42 49/52/42 48/51/42
f 26/28/43 42/45/43 41/44/43
f 18/19/44 19/21/44 35/38/44
f 33/35/45 18/20/45 34/36/45
f 26/28/46 27/29/46 43/46/46
f 19/21/47 20/22/47 36/39/47
f 27/29/48 28/30/48 44/47/48
f 21/23/49 37/40/49 36/39/49
f 57/61/50 56/60/50 40/43/50
f 60/64/51 59/63/51 43/46/51
f 37/40/52 53/57/52 52/56/52
f 61/65/53 60/64/53 44/47/53
f 54/58/54 53/57/54 37/40/54
f 62/66/55 61/65/55 45/48/55
f 55/59/56 54/58/56 38/41/56
f 47/50/57 63/67/57 62/66/57
f 39/42/58 40/43/58 56/60/58
f 64/68/59 63/67/59 47/50/59
f 49/52/60 65/69/60 64/68/60
f 58/62/61 57/61/61 41/44/61
f 50/53/62 65/69/62 49/52/62
f 59/63/63 58/62/63 42/45/63
f 60/64/64 61/65/64 77/82/64
f 67/72/65 83/89/65 82/87/65
f 54/58/66 70/75/66 69/74/66
f 61/65/67 62/66/67 78/83/67
f 54/58/68 55/59/68 71/76/68
f 63/67/69 79/84/69 78/83/69
f 56/60/70 72/77/70 71/76/70
f 64/68/71 80/85/71 79/84/71
f 56/60/72 57/61/72 73/78/72
f 65/69/73 81/86/73 80/85/73
f 57/61/74 58/62/74 74/79/74
f 51/55/75 67/72/75 66/70/75
f 65/69/76 50/53/76 66/71/76
f 59/63/77 75/80/77 74/79/77
f 51/55/78 52/56/78 68/73/78
f 59/63/79 60/64/79 76/81/79
f 53/57/80 69/74/80 68/73/80
f 88/94/81 104/115/81 103/114/81
f 66/71/82 82/88/82 97/103/82
f 75/80/83 91/97/83 90/96/83
f 68/73/84 84/90/84 83/89/84
f 76/81/85 92/98/85 91/97/85
f 69/74/86 85/91/86 84/90/86
f 77/82/87 93/99/87 92/98/87
f 70/75/88 86/92/88 85/91/88
f 78/83/89 94/100/89 93/99/89
f 71/76/90 87/93/90 86/92/90
f 79/84/91 95/101/91 94/100/91
f 72/77/92 88/94/92 87/93/92
f 79/84/93 80/85/93 96/102/93
f 73/78/94 89/95/94 88/94/94
f 81/86/95 97/103/95 96/102/95
f 73/78/96 74/79/96 90/96/96
f 113/133/97 98/104/97 99/106/97
f 99/106/97 100/107/97 101/109/97
f 101/109/97 102/111/97 103/113/97
f 103/113/97 104/116/97 105/117/97
f 105/117/97 106/119/97 107/121/97
f 107/121/97 108/123/97 109/125/97
f 109/125/97 110/127/97 111/129/97
f 111/129/97 112/131/97 113/133/97
f 113/133/97 99/106/97 101/109/97
f 101/109/97 103/113/97 105/117/97
f 105/117/97 107/121/97 109/125/97
f 109/125/97 111/129/97 113/133/97
f 113/133/97 101/109/97 105/117/97
f 96/102/98 112/132/98 111/130/98
f 88/94/99 89/95/99 105/118/99
f 96/102/100 97/103/100 113/134/100
f 89/95/101 90/96/101 106/120/101
f 83/89/102 99/106/102 98/104/102
f 82/88/103 98/105/103 113/134/103
f 90/96/104 91/97/104 107/122/104
f 83/89/105 84/90/105 100/108/105
f 91/97/106 92/98/106 108/124/106
f 85/91/107 101/110/107 100/108/107
f 93/99/108 109/126/108 108/124/108
f 86/92/109 102/112/109 101/110/109
f 93/99/110 94/100/110 110/128/110
f 86/92/111 87/93/111 103/114/111
f 95/101/112 111/130/112 110/128/112
f 51/55/113 50/54/113 34/37/113
